<?xml version="1.0"?>
<svg version="1.1" xmlns="http://www.w3.org/2000/svg" xmlns:xlink="http://www.w3.org/1999/xlink" width="170" height="48">
    <desc iVinci="yes" version="4.6" gridStep="20" showGrid="yes" snapToGrid="no" codePlatform="0"/>
    <g id="Layer1" name="Layer 1" opacity="1">
        <g id="Shape1">
            <desc shapeID="1" type="0" basicInfo-basicType="0" basicInfo-roundedRectRadius="12" basicInfo-polygonSides="6" basicInfo-starPoints="5" bounding="rect(-6.0385,-4.8745,12.077,9.749)" text="" font-familyName="" font-pixelSize="20" font-bold="0" font-underline="0" font-alignment="1" strokeStyle="0" markerStart="0" markerEnd="0" shadowEnabled="0" shadowOffsetX="0" shadowOffsetY="2" shadowBlur="4" shadowOpacity="160" blurEnabled="0" blurRadius="4" transform="matrix(1,0,0,1,9.88584,12.4753)" pers-center="0,0" pers-size="0,0" pers-start="0,0" pers-end="0,0" locked="0" mesh="" flag=""/>
            <path id="shapePath1" d="M15.9243,8.72582 C15.4743,8.95082 15.0243,9.02482 14.4993,9.10082 C15.0233,8.79982 15.3983,8.35082 15.5493,7.75082 C15.0993,8.04982 14.5743,8.19982 13.9743,8.35082 C13.5243,7.89982 12.8493,7.60082 12.1743,7.60082 C10.8243,7.60082 9.69934,8.72582 9.69934,10.0758 C9.69934,10.3008 9.69934,10.4508 9.77334,10.6008 C7.74934,10.5248 5.94934,9.54982 4.67334,8.04982 C4.44834,8.42482 4.37334,8.79982 4.37334,9.32482 C4.37334,10.1488 4.82334,10.8988 5.49834,11.3498 C5.12334,11.3498 4.74834,11.1998 4.37334,11.0488 C4.37334,12.2498 5.19834,13.2248 6.32334,13.4488 C6.02234,13.6738 5.57334,13.6738 5.19834,13.4488 C5.49834,14.4238 6.39734,15.1738 7.52234,15.1738 C6.69834,15.8498 5.64734,16.2248 4.44834,16.2248 C4.22234,16.2248 4.07334,16.2248 3.84734,16.2248 C4.97234,16.8988 6.24734,17.3498 7.59734,17.3498 C12.0973,17.3498 14.5733,13.5998 14.5733,10.3748 C14.5733,10.2988 14.5733,10.1478 14.5733,10.0738 C15.1743,9.70082 15.6243,9.25082 15.9243,8.72582 Z" style="stroke:none;fill-rule:nonzero;fill:#ffffff;fill-opacity:1;"/>
        </g>
        <g id="Shape2">
            <desc shapeID="2" type="0" basicInfo-basicType="0" basicInfo-roundedRectRadius="12" basicInfo-polygonSides="6" basicInfo-starPoints="5" bounding="rect(-3.04303,-6,6.08605,12)" text="" font-familyName="" font-pixelSize="20" font-bold="0" font-underline="0" font-alignment="1" strokeStyle="0" markerStart="0" markerEnd="0" shadowEnabled="0" shadowOffsetX="0" shadowOffsetY="2" shadowBlur="4" shadowOpacity="160" blurEnabled="0" blurRadius="4" transform="matrix(1,0,0,1,54.0036,12.4758)" pers-center="0,0" pers-size="0,0" pers-start="0,0" pers-end="0,0" locked="0" mesh="" flag=""/>
            <path id="shapePath2" d="M52.4606,12.4758 L52.4606,18.4758 L54.7106,18.4758 L54.7106,12.4758 L56.2106,12.4758 L56.9606,10.2258 L54.7106,10.2258 C54.7106,10.2258 54.7106,9.85082 54.7106,9.25082 C54.7106,9.02382 54.8606,8.72582 55.2356,8.72582 C55.9856,8.72582 57.4106,8.72582 56.9606,8.72582 L56.9606,6.47582 C56.9606,6.47582 55.7606,6.47582 54.4856,6.47582 C53.2106,6.47582 52.4606,7.45082 52.4606,8.57582 C52.4606,9.70082 52.4606,10.3008 52.4606,10.3008 L50.9606,10.3008 L50.9606,12.5508 L52.4606,12.5508 L52.4606,12.4758 Z" style="stroke:none;fill-rule:nonzero;fill:#ffffff;fill-opacity:1;"/>
        </g>
        <g id="Shape3">
            <desc shapeID="3" type="0" basicInfo-basicType="0" basicInfo-roundedRectRadius="12" basicInfo-polygonSides="6" basicInfo-starPoints="5" bounding="rect(-6,-6,12,12)" text="" font-familyName="" font-pixelSize="20" font-bold="0" font-underline="0" font-alignment="1" strokeStyle="0" markerStart="0" markerEnd="0" shadowEnabled="0" shadowOffsetX="0" shadowOffsetY="2" shadowBlur="4" shadowOpacity="160" blurEnabled="0" blurRadius="4" transform="matrix(1,0,0,1,70.4994,12.4758)" pers-center="0,0" pers-size="0,0" pers-start="0,0" pers-end="0,0" locked="0" mesh="" flag=""/>
            <path id="shapePath3" d="M70.4994,18.4758 C67.1994,18.4758 64.4994,15.7748 64.4994,12.4758 C64.4994,9.17482 67.1994,6.47582 70.4994,6.47582 C73.8004,6.47582 76.4994,9.17482 76.4994,12.4758 C76.4994,15.7748 73.8004,18.4758 70.4994,18.4758 M75.5244,13.2998 C75.3744,13.2258 73.9484,12.8508 72.2994,13.0748 C72.9734,14.9498 73.1234,15.8498 73.2744,16.7508 C74.5504,15.9248 75.3004,14.7258 75.5244,13.2998 M72.5244,17.2008 C72.3744,16.3008 72.1494,15.1758 71.3994,13.3008 C68.4734,14.2758 67.4994,16.3008 67.3484,16.5258 C68.5494,17.5008 70.4994,17.8758 72.5244,17.2008 M66.6744,15.9248 C67.8744,13.6008 71.0254,12.4758 71.0994,12.4758 C70.9494,12.1748 70.7994,11.8758 70.6504,11.5758 C68.0994,12.3258 65.6254,12.3258 65.4004,12.3258 C65.3244,13.7508 65.8494,15.0248 66.6744,15.9248 M65.4744,11.4248 C65.7004,11.4248 67.7994,11.4248 70.2004,10.8248 C69.3754,9.32482 68.4744,8.04982 68.3254,7.82482 C66.8994,8.50082 65.8494,9.85082 65.4744,11.4248 M69.2994,7.52482 C69.4494,7.75182 70.3494,8.95082 71.1754,10.5248 C72.9744,9.85082 73.8004,8.79982 73.8744,8.64982 C72.9744,7.82582 71.2494,7.14982 69.2994,7.52482 M74.4744,9.25082 C74.4004,9.39882 73.4994,10.5238 71.6244,11.2738 C71.7744,11.5008 71.9254,11.9498 72.0734,12.3248 C73.8004,12.0998 75.0734,12.3248 75.6754,12.4748 C75.6754,11.1258 75.1494,10.0758 74.4744,9.25082 Z" style="stroke:none;fill-rule:nonzero;fill:#ffffff;fill-opacity:1;"/>
        </g>
        <g id="Shape4">
            <desc shapeID="4" type="0" basicInfo-basicType="0" basicInfo-roundedRectRadius="12" basicInfo-polygonSides="6" basicInfo-starPoints="5" bounding="rect(-6,-6,12,12)" text="" font-familyName="" font-pixelSize="20" font-bold="0" font-underline="0" font-alignment="1" strokeStyle="0" markerStart="0" markerEnd="0" shadowEnabled="0" shadowOffsetX="0" shadowOffsetY="2" shadowBlur="4" shadowOpacity="160" blurEnabled="0" blurRadius="4" transform="matrix(1,0,0,1,110.805,12.4758)" pers-center="0,0" pers-size="0,0" pers-start="0,0" pers-end="0,0" locked="0" mesh="" flag=""/>
            <path id="shapePath4" d="M106.305,15.4758 C105.481,15.4758 104.805,16.1498 104.805,16.9758 C104.805,17.7998 105.481,18.4758 106.305,18.4758 C107.129,18.4758 107.805,17.7998 107.805,16.9758 C107.879,16.2258 107.129,15.4758 106.305,15.4758 M104.805,10.5248 L104.805,12.8508 C107.955,12.8508 110.43,15.5498 110.43,18.4758 L112.754,18.4758 C112.754,14.1258 109.155,10.5248 104.805,10.5248 M104.805,6.47582 L104.805,8.79982 C110.129,8.79982 114.481,13.1498 114.481,18.4758 L116.805,18.4758 C116.805,11.8758 111.405,6.47582 104.805,6.47582 Z" style="stroke:none;fill-rule:nonzero;fill:#ffffff;fill-opacity:1;"/>
        </g>
        <g id="Shape5">
            <desc shapeID="5" type="0" basicInfo-basicType="0" basicInfo-roundedRectRadius="12" basicInfo-polygonSides="6" basicInfo-starPoints="5" bounding="rect(-6,-5.026,12,10.052)" text="" font-familyName="" font-pixelSize="20" font-bold="0" font-underline="0" font-alignment="1" strokeStyle="0" markerStart="0" markerEnd="0" shadowEnabled="0" shadowOffsetX="0" shadowOffsetY="2" shadowBlur="4" shadowOpacity="160" blurEnabled="0" blurRadius="4" transform="matrix(1,0,0,1,30.6601,12.4758)" pers-center="0,0" pers-size="0,0" pers-start="0,0" pers-end="0,0" locked="0" mesh="" flag=""/>
            <path id="shapePath5" d="M32.7601,13.2998 C32.3111,13.2998 31.9361,13.8248 31.9361,14.5008 C31.9361,15.1748 32.3111,15.6998 32.7601,15.6998 C33.2101,15.6998 33.5851,15.1748 33.5851,14.5008 C33.5851,13.8258 33.2101,13.2998 32.7601,13.2998 M35.6851,10.2998 C35.7591,10.0748 35.7591,8.72582 35.2351,7.44982 C35.2351,7.44982 34.0351,7.59982 32.2351,8.79982 C31.8601,8.72582 31.2591,8.64982 30.5851,8.64982 C29.9111,8.64982 29.3111,8.72582 28.9361,8.79982 C27.1351,7.60082 25.9361,7.44982 25.9361,7.44982 C25.4111,8.72482 25.4111,10.0748 25.4861,10.2998 C25.0351,10.8998 24.6601,11.7258 24.6601,12.7748 C24.6601,17.4248 28.5601,17.5018 29.5351,17.5018 C29.7601,17.5018 30.2101,17.5018 30.6601,17.5018 C31.1101,17.5018 31.5601,17.5018 31.7851,17.5018 C32.7601,17.5018 36.6601,17.4258 36.6601,12.7748 C36.6601,11.7258 36.2851,10.8998 35.6851,10.2998 M30.6601,16.9758 C28.1851,16.9758 26.2351,16.6748 26.2351,14.2748 C26.2351,13.6748 26.4601,13.1498 26.9101,12.7008 C27.7351,11.9508 29.0851,12.3258 30.5851,12.3258 C32.1601,12.3258 33.5101,11.9508 34.2601,12.7008 C34.7101,13.1498 34.9361,13.6758 34.9361,14.2748 C35.0851,16.6748 33.1351,16.9758 30.6601,16.9758 M28.5601,13.2998 C28.1101,13.2998 27.7351,13.8248 27.7351,14.5008 C27.7351,15.1748 28.1101,15.6998 28.5601,15.6998 C29.0091,15.6998 29.3841,15.1748 29.3841,14.5008 C29.4601,13.8258 29.0851,13.2998 28.5601,13.2998 Z" style="stroke:none;fill-rule:nonzero;fill:#ffffff;fill-opacity:1;"/>
        </g>
        <g id="Shape6">
            <desc shapeID="6" type="0" basicInfo-basicType="0" basicInfo-roundedRectRadius="12" basicInfo-polygonSides="6" basicInfo-starPoints="5" bounding="rect(-5.5885,-6.038,11.177,12.076)" text="" font-familyName="" font-pixelSize="20" font-bold="0" font-underline="0" font-alignment="1" strokeStyle="0" markerStart="0" markerEnd="0" shadowEnabled="0" shadowOffsetX="0" shadowOffsetY="2" shadowBlur="4" shadowOpacity="160" blurEnabled="0" blurRadius="4" transform="matrix(1,0,0,1,90.8966,12.4378)" pers-center="0,0" pers-size="0,0" pers-start="0,0" pers-end="0,0" locked="0" mesh="" flag=""/>
            <path id="shapePath6" d="M90.5591,9.32582 C90.4111,8.05082 89.5101,7.07582 88.6841,7.07582 C87.8601,7.07582 87.1841,8.05082 87.3341,9.25182 C87.4841,10.5248 88.3851,11.5018 89.2091,11.5758 C90.0361,11.5758 90.6351,10.5248 90.5591,9.32582 M89.1351,13.9758 C87.7851,13.9758 86.5841,14.7998 86.5841,15.9248 C86.5841,17.0498 87.5591,17.8758 88.8341,17.8758 C90.7091,17.8758 91.3851,17.0498 91.3851,15.9248 C91.3851,15.7748 91.3851,15.6998 91.3091,15.5498 C91.1611,14.9498 90.6351,14.6498 89.9591,14.1258 C89.7351,14.0498 89.4341,13.9758 89.1351,13.9758 M90.6351,7.07582 C91.3851,7.37682 91.7601,8.27482 91.7601,9.25182 C91.7601,10.0018 91.3091,10.6758 90.7851,11.2008 C90.2601,11.6498 90.1091,11.8768 90.1091,12.2518 C90.1091,12.6268 90.7091,13.1498 91.0091,13.3768 C91.9091,14.1268 92.2081,14.7268 92.2081,15.7748 C92.2081,17.1268 91.0091,18.4758 88.8331,18.4758 C86.8841,18.4758 85.3081,17.6498 85.3081,16.2998 C85.3081,14.9498 86.8081,13.6008 88.6831,13.6008 L89.2851,13.6008 C89.0581,13.2998 88.8341,13.0008 88.8341,12.5498 C88.8341,12.3248 88.9101,12.1008 88.9841,11.7998 C88.8341,11.7998 88.7591,11.7998 88.6831,11.7998 C87.1091,11.7998 86.0581,10.6008 86.0581,9.10082 C86.0581,7.67482 87.4841,6.39982 89.0581,6.39982 L92.5091,6.39982 L91.7591,7.00182 L90.6351,7.00182 L90.6351,7.07582 M96.4851,9.47582 L94.9851,9.47582 L94.9851,10.9758 L94.2351,10.9758 L94.2351,9.47582 L92.7351,9.47582 L92.7351,8.72582 L94.2351,8.72582 L94.2351,7.22582 L94.9851,7.22582 L94.9851,8.72582 L96.4851,8.72582 L96.4851,9.47582 Z" style="stroke:none;fill-rule:nonzero;fill:#ffffff;fill-opacity:1;"/>
        </g>
        <g id="Shape7">
            <desc shapeID="7" type="0" basicInfo-basicType="0" basicInfo-roundedRectRadius="12" basicInfo-polygonSides="6" basicInfo-starPoints="5" bounding="rect(-4.68274,-6.02278,9.36548,12.0456)" text="" font-familyName="" font-pixelSize="20" font-bold="0" font-underline="0" font-alignment="1" strokeStyle="0" markerStart="0" markerEnd="0" shadowEnabled="0" shadowOffsetX="0" shadowOffsetY="2" shadowBlur="4" shadowOpacity="160" blurEnabled="0" blurRadius="4" transform="matrix(1,0,0,1,130.791,12.453)" pers-center="0,0" pers-size="0,0" pers-start="0,0" pers-end="0,0" locked="0" mesh="" flag=""/>
            <path id="shapePath7" d="M130.018,14.4248 C129.717,16.0748 129.342,17.6498 128.143,18.4758 C127.768,16.0008 128.666,14.1258 129.041,12.1008 C128.367,10.9758 129.117,8.64982 130.541,9.17482 C132.342,9.85082 128.967,13.4498 131.217,13.8998 C133.541,14.3508 134.518,9.85082 133.092,8.35082 C130.992,6.25082 127.018,8.27482 127.467,11.3508 C127.617,12.1008 128.367,12.3258 127.768,13.3758 C126.416,13.0748 126.041,12.0238 126.118,10.6008 C126.192,8.27482 128.218,6.70082 130.167,6.47582 C132.718,6.17482 135.042,7.37582 135.417,9.77482 C135.792,12.4758 134.292,15.3258 131.593,15.1748 C130.916,15.1008 130.617,14.7258 130.018,14.4248 Z" style="stroke:none;fill-rule:nonzero;fill:#ffffff;fill-opacity:1;"/>
        </g>
        <g id="Shape8">
            <desc shapeID="8" type="0" basicInfo-basicType="0" basicInfo-roundedRectRadius="12" basicInfo-polygonSides="6" basicInfo-starPoints="5" bounding="rect(-6.0385,-4.8745,12.077,9.74899)" text="" font-familyName="" font-pixelSize="20" font-bold="0" font-underline="0" font-alignment="1" strokeStyle="0" markerStart="0" markerEnd="0" shadowEnabled="0" shadowOffsetX="0" shadowOffsetY="2" shadowBlur="4" shadowOpacity="160" blurEnabled="0" blurRadius="4" transform="matrix(1,0,0,1,9.88584,36.4753)" pers-center="0,0" pers-size="0,0" pers-start="0,0" pers-end="0,0" locked="0" mesh="" flag=""/>
            <path id="shapePath8" d="M15.9243,32.7258 C15.4743,32.9508 15.0243,33.0268 14.4993,33.1008 C15.0233,32.7998 15.3983,32.3508 15.5493,31.7508 C15.0993,32.0498 14.5743,32.1998 13.9743,32.3508 C13.5243,31.9018 12.8493,31.6008 12.1743,31.6008 C10.8243,31.6008 9.69934,32.7258 9.69934,34.0758 C9.69934,34.3008 9.69934,34.4508 9.77334,34.6008 C7.74934,34.5268 5.94934,33.5498 4.67334,32.0498 C4.44834,32.4248 4.37334,32.7998 4.37334,33.3248 C4.37334,34.1508 4.82334,34.9008 5.49834,35.3498 C5.12334,35.3498 4.74834,35.1998 4.37334,35.0488 C4.37334,36.2498 5.19834,37.2248 6.32334,37.4488 C6.02234,37.6738 5.57334,37.6738 5.19834,37.4488 C5.49834,38.4238 6.39734,39.1738 7.52234,39.1738 C6.69834,39.8498 5.64734,40.2248 4.44834,40.2248 C4.22234,40.2248 4.07334,40.2248 3.84734,40.2248 C4.97234,40.9008 6.24734,41.3498 7.59734,41.3498 C12.0973,41.3498 14.5733,37.5998 14.5733,34.3748 C14.5733,34.2988 14.5733,34.1498 14.5733,34.0738 C15.1743,33.7008 15.6243,33.2508 15.9243,32.7258 Z" style="stroke:none;fill-rule:nonzero;fill:#383838;fill-opacity:1;"/>
        </g>
        <g id="Shape9">
            <desc shapeID="9" type="0" basicInfo-basicType="0" basicInfo-roundedRectRadius="12" basicInfo-polygonSides="6" basicInfo-starPoints="5" bounding="rect(-3.04303,-6,6.08605,12)" text="" font-familyName="" font-pixelSize="20" font-bold="0" font-underline="0" font-alignment="1" strokeStyle="0" markerStart="0" markerEnd="0" shadowEnabled="0" shadowOffsetX="0" shadowOffsetY="2" shadowBlur="4" shadowOpacity="160" blurEnabled="0" blurRadius="4" transform="matrix(1,0,0,1,54.0036,36.4758)" pers-center="0,0" pers-size="0,0" pers-start="0,0" pers-end="0,0" locked="0" mesh="" flag=""/>
            <path id="shapePath9" d="M52.4606,36.4758 L52.4606,42.4758 L54.7106,42.4758 L54.7106,36.4758 L56.2106,36.4758 L56.9606,34.2258 L54.7106,34.2258 C54.7106,34.2258 54.7106,33.8508 54.7106,33.2508 C54.7106,33.0258 54.8606,32.7258 55.2356,32.7258 C55.9856,32.7258 57.4106,32.7258 56.9606,32.7258 L56.9606,30.4758 C56.9606,30.4758 55.7606,30.4758 54.4856,30.4758 C53.2106,30.4758 52.4606,31.4508 52.4606,32.5758 C52.4606,33.7008 52.4606,34.3008 52.4606,34.3008 L50.9606,34.3008 L50.9606,36.5508 L52.4606,36.4758 Z" style="stroke:none;fill-rule:nonzero;fill:#383838;fill-opacity:1;"/>
        </g>
        <g id="Shape10">
            <desc shapeID="10" type="0" basicInfo-basicType="0" basicInfo-roundedRectRadius="12" basicInfo-polygonSides="6" basicInfo-starPoints="5" bounding="rect(-6,-6,12,12)" text="" font-familyName="" font-pixelSize="20" font-bold="0" font-underline="0" font-alignment="1" strokeStyle="0" markerStart="0" markerEnd="0" shadowEnabled="0" shadowOffsetX="0" shadowOffsetY="2" shadowBlur="4" shadowOpacity="160" blurEnabled="0" blurRadius="4" transform="matrix(1,0,0,1,70.4994,36.4758)" pers-center="0,0" pers-size="0,0" pers-start="0,0" pers-end="0,0" locked="0" mesh="" flag=""/>
            <path id="shapePath10" d="M70.4994,42.4758 C67.1994,42.4758 64.4994,39.7768 64.4994,36.4758 C64.4994,33.1748 67.1994,30.4758 70.4994,30.4758 C73.8004,30.4758 76.4994,33.1748 76.4994,36.4758 C76.4994,39.7768 73.8004,42.4758 70.4994,42.4758 M75.5244,37.2998 C75.3744,37.2258 73.9484,36.8508 72.2994,37.0748 C72.9734,38.9498 73.1234,39.8498 73.2744,40.7508 C74.5504,39.9248 75.3004,38.7258 75.5244,37.2998 M72.5244,41.2008 C72.3744,40.3008 72.1494,39.1758 71.3994,37.3008 C68.4734,38.2778 67.4994,40.3008 67.3484,40.5278 C68.5494,41.5008 70.4994,41.8758 72.5244,41.2008 M66.6744,39.9248 C67.8744,37.6008 71.0254,36.4758 71.0994,36.4758 C70.9494,36.1748 70.7994,35.8758 70.6504,35.5758 C68.0994,36.3258 65.6254,36.3258 65.4004,36.3258 C65.3244,37.7508 65.8494,39.0268 66.6744,39.9248 M65.4744,35.4248 C65.7004,35.4248 67.7994,35.4248 70.2004,34.8248 C69.3754,33.3248 68.4744,32.0498 68.3254,31.8248 C66.8994,32.5008 65.8494,33.8508 65.4744,35.4248 M69.2994,31.5268 C69.4494,31.7518 70.3494,32.9508 71.1754,34.5268 C72.9744,33.8508 73.8004,32.7998 73.8744,32.6518 C72.9744,31.8258 71.2494,31.1518 69.2994,31.5268 M74.4744,33.2508 C74.4004,33.4008 73.4994,34.5258 71.6244,35.2758 C71.7744,35.5008 71.9254,35.9498 72.0734,36.3248 C73.8004,36.0998 75.0734,36.3248 75.6754,36.4748 C75.6754,35.1258 75.1494,34.0758 74.4744,33.2508 Z" style="stroke:none;fill-rule:nonzero;fill:#383838;fill-opacity:1;"/>
        </g>
        <g id="Shape11">
            <desc shapeID="11" type="0" basicInfo-basicType="0" basicInfo-roundedRectRadius="12" basicInfo-polygonSides="6" basicInfo-starPoints="5" bounding="rect(-6,-6,12,12)" text="" font-familyName="" font-pixelSize="20" font-bold="0" font-underline="0" font-alignment="1" strokeStyle="0" markerStart="0" markerEnd="0" shadowEnabled="0" shadowOffsetX="0" shadowOffsetY="2" shadowBlur="4" shadowOpacity="160" blurEnabled="0" blurRadius="4" transform="matrix(1,0,0,1,110.805,36.4758)" pers-center="0,0" pers-size="0,0" pers-start="0,0" pers-end="0,0" locked="0" mesh="" flag=""/>
            <path id="shapePath11" d="M106.305,39.4758 C105.481,39.4758 104.805,40.1518 104.805,40.9758 C104.805,41.7998 105.481,42.4758 106.305,42.4758 C107.129,42.4758 107.805,41.7998 107.805,40.9758 C107.879,40.2258 107.129,39.4758 106.305,39.4758 M104.805,34.5268 L104.805,36.8508 C107.955,36.8508 110.43,39.5498 110.43,42.4758 L112.754,42.4758 C112.754,38.1258 109.155,34.5268 104.805,34.5268 M104.805,30.4758 L104.805,32.7998 C110.129,32.7998 114.481,37.1518 114.481,42.4758 L116.805,42.4758 C116.805,35.8758 111.405,30.4758 104.805,30.4758 Z" style="stroke:none;fill-rule:nonzero;fill:#383838;fill-opacity:1;"/>
        </g>
        <g id="Shape12">
            <desc shapeID="12" type="0" basicInfo-basicType="0" basicInfo-roundedRectRadius="12" basicInfo-polygonSides="6" basicInfo-starPoints="5" bounding="rect(-6,-5.026,12,10.052)" text="" font-familyName="" font-pixelSize="20" font-bold="0" font-underline="0" font-alignment="1" strokeStyle="0" markerStart="0" markerEnd="0" shadowEnabled="0" shadowOffsetX="0" shadowOffsetY="2" shadowBlur="4" shadowOpacity="160" blurEnabled="0" blurRadius="4" transform="matrix(1,0,0,1,30.6601,36.4758)" pers-center="0,0" pers-size="0,0" pers-start="0,0" pers-end="0,0" locked="0" mesh="" flag=""/>
            <path id="shapePath12" d="M32.7601,37.2998 C32.3111,37.2998 31.9361,37.8248 31.9361,38.5008 C31.9361,39.1748 32.3111,39.6998 32.7601,39.6998 C33.2101,39.6998 33.5851,39.1748 33.5851,38.5008 C33.5851,37.8258 33.2101,37.2998 32.7601,37.2998 M35.6851,34.2998 C35.7591,34.0748 35.7591,32.7258 35.2351,31.4498 C35.2351,31.4498 34.0351,31.5998 32.2351,32.7998 C31.8601,32.7258 31.2591,32.6518 30.5851,32.6518 C29.9111,32.6518 29.3111,32.7258 28.9361,32.7998 C27.1351,31.6008 25.9361,31.4498 25.9361,31.4498 C25.4111,32.7248 25.4111,34.0748 25.4861,34.2998 C25.0351,34.9018 24.6601,35.7258 24.6601,36.7768 C24.6601,41.4248 28.5601,41.5018 29.5351,41.5018 C29.7601,41.5018 30.2101,41.5018 30.6601,41.5018 C31.1101,41.5018 31.5601,41.5018 31.7851,41.5018 C32.7601,41.5018 36.6601,41.4258 36.6601,36.7768 C36.6601,35.7258 36.2851,34.9018 35.6851,34.2998 M30.6601,40.9758 C28.1851,40.9758 26.2351,40.6748 26.2351,38.2768 C26.2351,37.6748 26.4601,37.1518 26.9101,36.7008 C27.7351,35.9508 29.0851,36.3258 30.5851,36.3258 C32.1601,36.3258 33.5101,35.9508 34.2601,36.7008 C34.7101,37.1518 34.9361,37.6758 34.9361,38.2768 C35.0851,40.6748 33.1351,40.9758 30.6601,40.9758 M28.5601,37.2998 C28.1101,37.2998 27.7351,37.8248 27.7351,38.5008 C27.7351,39.1748 28.1101,39.6998 28.5601,39.6998 C29.0091,39.6998 29.3841,39.1748 29.3841,38.5008 C29.4601,37.8258 29.0851,37.2998 28.5601,37.2998 Z" style="stroke:none;fill-rule:nonzero;fill:#383838;fill-opacity:1;"/>
        </g>
        <g id="Shape13">
            <desc shapeID="13" type="0" basicInfo-basicType="0" basicInfo-roundedRectRadius="12" basicInfo-polygonSides="6" basicInfo-starPoints="5" bounding="rect(-5.5885,-6.03699,11.177,12.074)" text="" font-familyName="" font-pixelSize="20" font-bold="0" font-underline="0" font-alignment="1" strokeStyle="0" markerStart="0" markerEnd="0" shadowEnabled="0" shadowOffsetX="0" shadowOffsetY="2" shadowBlur="4" shadowOpacity="160" blurEnabled="0" blurRadius="4" transform="matrix(1,0,0,1,90.8966,36.4388)" pers-center="0,0" pers-size="0,0" pers-start="0,0" pers-end="0,0" locked="0" mesh="" flag=""/>
            <path id="shapePath13" d="M90.5591,33.3258 C90.4111,32.0508 89.5101,31.0758 88.6841,31.0758 C87.8601,31.0758 87.1841,32.0508 87.3341,33.2518 C87.4841,34.5268 88.3851,35.5018 89.2091,35.5758 C90.0361,35.5758 90.6351,34.5268 90.5591,33.3258 M89.1351,37.9758 C87.7851,37.9758 86.5841,38.7998 86.5841,39.9248 C86.5841,40.9758 87.5591,41.8758 88.8341,41.8758 C90.7091,41.8758 91.3851,41.0498 91.3851,39.9248 C91.3851,39.7768 91.3851,39.6998 91.3091,39.5498 C91.1611,38.9498 90.6351,38.6518 89.9591,38.1258 C89.7351,38.0498 89.4341,37.9758 89.1351,37.9758 M90.6351,31.0758 C91.3851,31.3768 91.7601,32.2768 91.7601,33.2518 C91.7601,34.0018 91.3091,34.6758 90.7851,35.2008 C90.2601,35.6518 90.1091,35.8768 90.1091,36.2518 C90.1091,36.6268 90.7091,37.1518 91.0091,37.3768 C91.9091,38.1268 92.2081,38.7268 92.2081,39.7768 C92.2081,41.1268 91.0091,42.4758 88.8331,42.4758 C86.8841,42.4758 85.3081,41.6518 85.3081,40.2998 C85.3081,38.9498 86.8081,37.6008 88.6831,37.6008 L89.2851,37.6008 C89.0581,37.2998 88.8341,37.0008 88.8341,36.5498 C88.8341,36.3248 88.9101,36.1008 88.9841,35.7998 C88.8341,35.7998 88.7591,35.7998 88.6831,35.7998 C87.1091,35.7998 86.0581,34.6008 86.0581,33.1008 C86.0581,31.6748 87.4841,30.4018 89.0581,30.4018 L92.5091,30.4018 L91.7591,31.0018 L90.6351,31.0018 L90.6351,31.0758 M96.4851,33.4758 L94.9851,33.4758 L94.9851,34.9758 L94.2351,34.9758 L94.2351,33.4758 L92.7351,33.4758 L92.7351,32.7258 L94.2351,32.7258 L94.2351,31.2258 L94.9851,31.2258 L94.9851,32.7258 L96.4851,32.7258 L96.4851,33.4758 Z" style="stroke:none;fill-rule:nonzero;fill:#383838;fill-opacity:1;"/>
        </g>
        <g id="Shape14">
            <desc shapeID="14" type="0" basicInfo-basicType="0" basicInfo-roundedRectRadius="12" basicInfo-polygonSides="6" basicInfo-starPoints="5" bounding="rect(-4.68274,-6.02277,9.36548,12.0455)" text="" font-familyName="" font-pixelSize="20" font-bold="0" font-underline="0" font-alignment="1" strokeStyle="0" markerStart="0" markerEnd="0" shadowEnabled="0" shadowOffsetX="0" shadowOffsetY="2" shadowBlur="4" shadowOpacity="160" blurEnabled="0" blurRadius="4" transform="matrix(1,0,0,1,130.791,36.453)" pers-center="0,0" pers-size="0,0" pers-start="0,0" pers-end="0,0" locked="0" mesh="" flag=""/>
            <path id="shapePath14" d="M130.018,38.4248 C129.717,40.0748 129.342,41.6518 128.143,42.4758 C127.768,40.0008 128.666,38.1258 129.041,36.1008 C128.367,34.9758 129.117,32.6518 130.541,33.1748 C132.342,33.8508 128.967,37.4498 131.217,37.9018 C133.541,38.3508 134.518,33.8508 133.092,32.3508 C130.992,30.2508 127.018,32.2768 127.467,35.3508 C127.617,36.1008 128.367,36.3258 127.768,37.3758 C126.416,37.0748 126.041,36.0258 126.118,34.6008 C126.192,32.2768 128.218,30.7008 130.167,30.4758 C132.718,30.1748 135.042,31.3758 135.417,33.7768 C135.792,36.4758 134.292,39.3258 131.593,39.1748 C130.916,39.1008 130.617,38.7258 130.018,38.4248 Z" style="stroke:none;fill-rule:nonzero;fill:#383838;fill-opacity:1;"/>
        </g>
        <g id="Shape15">
            <desc shapeID="15" type="0" basicInfo-basicType="0" basicInfo-roundedRectRadius="12" basicInfo-polygonSides="6" basicInfo-starPoints="5" bounding="rect(-10.457,-31.4575,20.914,62.915)" text="" font-familyName="" font-pixelSize="20" font-bold="0" font-underline="0" font-alignment="1" strokeStyle="0" markerStart="0" markerEnd="0" shadowEnabled="0" shadowOffsetX="0" shadowOffsetY="2" shadowBlur="4" shadowOpacity="160" blurEnabled="0" blurRadius="4" transform="matrix(0.138291,0,0,0.138896,145.501,14.1065)" pers-center="0,0" pers-size="0,0" pers-start="0,0" pers-end="0,0" locked="0" mesh="" flag=""/>
            <path id="shapePath15" d="M144.054,9.73717 L146.947,9.73717 L146.947,18.4758 L144.054,18.4758 L144.054,9.73717 Z" style="stroke:none;fill-rule:evenodd;fill:#ffffff;fill-opacity:1;"/>
        </g>
        <g id="Shape16">
            <desc shapeID="16" type="0" basicInfo-basicType="0" basicInfo-roundedRectRadius="12" basicInfo-polygonSides="6" basicInfo-starPoints="5" bounding="rect(-11.7675,-10.8725,23.535,21.745)" text="" font-familyName="" font-pixelSize="20" font-bold="0" font-underline="0" font-alignment="1" strokeStyle="0" markerStart="0" markerEnd="0" shadowEnabled="0" shadowOffsetX="0" shadowOffsetY="2" shadowBlur="4" shadowOpacity="160" blurEnabled="0" blurRadius="4" transform="matrix(0.138291,0,0,0.138896,145.682,7.03433)" pers-center="0,0" pers-size="0,0" pers-start="0,0" pers-end="0,0" locked="0" mesh="" flag=""/>
            <path id="shapePath16" d="M145.692,5.52418 C144.702,5.52418 144.054,6.1763 144.054,7.0337 C144.054,7.87277 144.683,8.54448 145.653,8.54448 L145.673,8.54448 C146.681,8.54448 147.309,7.87277 147.309,7.0337 C147.29,6.1763 146.681,5.52418 145.692,5.52418 Z" style="stroke:none;fill-rule:nonzero;fill:#ffffff;fill-opacity:1;"/>
        </g>
        <g id="Shape17">
            <desc shapeID="17" type="0" basicInfo-basicType="0" basicInfo-roundedRectRadius="12" basicInfo-polygonSides="6" basicInfo-starPoints="5" bounding="rect(-31.9275,-32.1975,63.855,64.395)" text="" font-familyName="" font-pixelSize="20" font-bold="0" font-underline="0" font-alignment="1" strokeStyle="0" markerStart="0" markerEnd="0" shadowEnabled="0" shadowOffsetX="0" shadowOffsetY="2" shadowBlur="4" shadowOpacity="160" blurEnabled="0" blurRadius="4" transform="matrix(0.138291,0,0,0.138896,153.134,14.0037)" pers-center="0,0" pers-size="0,0" pers-start="0,0" pers-end="0,0" locked="0" mesh="" flag=""/>
            <path id="shapePath17" d="M154.218,9.5316 C152.682,9.5316 151.995,10.3811 151.611,10.9756 L151.611,11.0039 L151.592,11.0039 C151.598,10.995 151.606,10.9847 151.611,10.9756 L151.611,9.73703 L148.719,9.73703 C148.757,10.5571 148.719,18.4757 148.719,18.4757 L151.611,18.4757 L151.611,13.5953 C151.611,13.3336 151.631,13.0739 151.707,12.8869 C151.917,12.3645 152.392,11.8244 153.191,11.8244 C154.238,11.8244 154.657,12.6261 154.657,13.8004 L154.657,18.4758 L157.549,18.4758 L157.549,13.4646 C157.549,10.7804 156.122,9.5316 154.218,9.5316 Z" style="stroke:none;fill-rule:nonzero;fill:#ffffff;fill-opacity:1;"/>
        </g>
        <g id="Shape18">
            <desc shapeID="18" type="0" basicInfo-basicType="0" basicInfo-roundedRectRadius="12" basicInfo-polygonSides="6" basicInfo-starPoints="5" bounding="rect(-10.457,-31.4575,20.914,62.915)" text="" font-familyName="" font-pixelSize="20" font-bold="0" font-underline="0" font-alignment="1" strokeStyle="0" markerStart="0" markerEnd="0" shadowEnabled="0" shadowOffsetX="0" shadowOffsetY="2" shadowBlur="4" shadowOpacity="160" blurEnabled="0" blurRadius="4" transform="matrix(0.138291,0,0,0.138896,145.844,38.1063)" pers-center="0,0" pers-size="0,0" pers-start="0,0" pers-end="0,0" locked="0" mesh="" flag=""/>
            <path id="shapePath18" d="M144.398,33.737 L147.29,33.737 L147.29,42.4757 L144.398,42.4757 L144.398,33.737 Z" style="stroke:none;fill-rule:evenodd;fill:#000000;fill-opacity:1;"/>
        </g>
        <g id="Shape19">
            <desc shapeID="19" type="0" basicInfo-basicType="0" basicInfo-roundedRectRadius="12" basicInfo-polygonSides="6" basicInfo-starPoints="5" bounding="rect(-11.7675,-10.8725,23.535,21.745)" text="" font-familyName="" font-pixelSize="20" font-bold="0" font-underline="0" font-alignment="1" strokeStyle="0" markerStart="0" markerEnd="0" shadowEnabled="0" shadowOffsetX="0" shadowOffsetY="2" shadowBlur="4" shadowOpacity="160" blurEnabled="0" blurRadius="4" transform="matrix(0.138291,0,0,0.138896,145.854,31.0343)" pers-center="0,0" pers-size="0,0" pers-start="0,0" pers-end="0,0" locked="0" mesh="" flag=""/>
            <path id="shapePath19" d="M145.863,29.5242 C144.874,29.5242 144.226,30.1763 144.226,31.0337 C144.226,31.8728 144.855,32.5445 145.825,32.5445 L145.845,32.5445 C146.853,32.5445 147.481,31.8728 147.481,31.0337 C147.462,30.1763 146.853,29.5242 145.863,29.5242 Z" style="stroke:none;fill-rule:nonzero;fill:#000000;fill-opacity:1;"/>
        </g>
        <g id="Shape20">
            <desc shapeID="20" type="0" basicInfo-basicType="0" basicInfo-roundedRectRadius="12" basicInfo-polygonSides="6" basicInfo-starPoints="5" bounding="rect(-31.9275,-32.1975,63.855,64.395)" text="" font-familyName="" font-pixelSize="20" font-bold="0" font-underline="0" font-alignment="1" strokeStyle="0" markerStart="0" markerEnd="0" shadowEnabled="0" shadowOffsetX="0" shadowOffsetY="2" shadowBlur="4" shadowOpacity="160" blurEnabled="0" blurRadius="4" transform="matrix(0.138291,0,0,0.138896,153.306,38.0037)" pers-center="0,0" pers-size="0,0" pers-start="0,0" pers-end="0,0" locked="0" mesh="" flag=""/>
            <path id="shapePath20" d="M154.39,33.5316 C152.854,33.5316 152.167,34.3811 151.783,34.9756 L151.783,35.0039 L151.764,35.0039 C151.77,34.995 151.777,34.9847 151.783,34.9756 L151.783,33.737 L148.89,33.737 C148.929,34.5571 148.89,42.4757 148.89,42.4757 L151.783,42.4757 L151.783,37.5953 C151.783,37.3336 151.802,37.0739 151.879,36.8869 C152.088,36.3645 152.564,35.8243 153.363,35.8243 C154.41,35.8243 154.829,36.6261 154.829,37.8004 L154.829,42.4758 L157.721,42.4758 L157.721,37.4646 C157.721,34.7804 156.294,33.5316 154.39,33.5316 Z" style="stroke:none;fill-rule:nonzero;fill:#000000;fill-opacity:1;"/>
        </g>
    </g>
</svg>
